<svg class="bi" width="3.5em" height="3.5em" xmlns="http://www.w3.org/2000/svg" xmlns:xlink="http://www.w3.org/1999/xlink" x="0px" y="0px"	 viewBox="0 0 512 512" style="enable-background:new 0 0 512 512;" xml:space="preserve"><style type="text/css">	.st0{fill:#183153;}	.st1{opacity:0.4;fill:#5C99CB;enable-background:new    ;}</style><path class="st0" d="M16,72c0-13.2,10.8-24,24-24h48c13.3,0,24,10.8,24,24v48c0,13.3-10.7,24-24,24H40c-13.2,0-24-10.7-24-24V72z	 M16,232c0-13.3,10.8-24,24-24h48c13.3,0,24,10.7,24,24v48c0,13.3-10.7,24-24,24H40c-13.2,0-24-10.7-24-24V232z M88,368	c13.3,0,24,10.7,24,24v48c0,13.3-10.7,24-24,24H40c-13.2,0-24-10.7-24-24v-48c0-13.3,10.8-24,24-24H88z"/><path class="st1" d="M160,96c0-17.7,14.3-32,32-32h288c17.7,0,32,14.3,32,32c0,17.7-14.3,32-32,32H192C174.3,128,160,113.7,160,96z	 M160,256c0-17.7,14.3-32,32-32h288c17.7,0,32,14.3,32,32s-14.3,32-32,32H192C174.3,288,160,273.7,160,256z M480,384	c17.7,0,32,14.3,32,32s-14.3,32-32,32H192c-17.7,0-32-14.3-32-32s14.3-32,32-32H480z"/><script  xmlns=""></script></svg>
