<svg class="bi" width="3.5em" height="3.5em" xmlns="http://www.w3.org/2000/svg" xmlns:xlink="http://www.w3.org/1999/xlink" viewBox="0 0 384 512" style="enable-background:new 0 0 384 512;" xml:space="preserve"><style type="text/css">	.st0{fill:#183153;}	.st1{opacity:0.4;fill:#5C99CB;enable-background:new    ;}</style><path class="st0" d="M80,160c0-8.8,7.2-16,16-16h192c8.8,0,16,7.2,16,16s-7.2,16-16,16H96C87.2,176,80,168.8,80,160z M80,352	c0-8.8,7.2-16,16-16h192c8.8,0,16,7.2,16,16s-7.2,16-16,16H96C87.2,368,80,360.8,80,352z M288,240c8.8,0,16,7.2,16,16	c0,8.8-7.2,16-16,16H96c-8.8,0-16-7.2-16-16c0-8.8,7.2-16,16-16H288z"/><path class="st1" d="M14,2.2c8.5-3.9,18.5-2.5,25.6,3.6L80,40.4l40.4-34.6c9-7.7,22.2-7.7,31.2,0L192,40.4l40.4-34.6	c9-7.7,22.2-7.7,31.2,0L304,40.4l40.4-34.6c7.1-6.1,17.1-7.5,25.6-3.6c8.5,3.9,14,12.4,14,21.8v464c0,9.4-5.5,17.9-14,21.8	c-8.5,3.9-18.5,2.5-25.6-3.6L304,471.6l-40.4,34.6c-9,7.7-22.2,7.7-31.2,0L192,471.6l-40.4,34.6c-9,7.7-22.2,7.7-31.2,0L80,471.6	l-40.4,34.6c-7.1,6.1-17.1,7.5-25.6,3.6C5.5,505.9,0,497.4,0,488V24C0,14.6,5.5,6.1,14,2.2L14,2.2z M96,144c-8.8,0-16,7.2-16,16	s7.2,16,16,16h192c8.8,0,16-7.2,16-16s-7.2-16-16-16H96z M96,368h192c8.8,0,16-7.2,16-16s-7.2-16-16-16H96c-8.8,0-16,7.2-16,16	S87.2,368,96,368z M96,240c-8.8,0-16,7.2-16,16c0,8.8,7.2,16,16,16h192c8.8,0,16-7.2,16-16c0-8.8-7.2-16-16-16H96z"/><script  xmlns=""></script></svg>