<svg class="bi" width="3.5em" height="3.5em" xmlns="http://www.w3.org/2000/svg" xmlns:xlink="http://www.w3.org/1999/xlink" x="0px" y="0px" 	 viewBox="0 0 512 512" style="enable-background:new 0 0 512 512;" xml:space="preserve"> <style type="text/css">	.st0{fill:#183153;}	.st1{opacity:0.4;fill:#5C99CB;enable-background:new    ;}</style><path class="st0" d="M351.1,128H384v32c0,8.8,7.2,16,16,16s16-7.2,16-16v-32h32c8.8,0,16-7.2,16-16.9S456.8,96,448,96h-32V64	c0-8.8-7.2-16-16.9-16S384,55.2,384,64v32h-32c-8.8,0-16,7.2-16,16S343.2,128,351.1,128z M157.3,354.8c-6.2-6.2-16.4-6.2-22.6,0	L112,377.4l-22.6-22.6c-6.2-6.2-16.4-6.2-22.6,0s-6.2,16.4,0,22.6L89.4,400l-22.6,22.6c-6.2,6.2-6.2,16.4,0,22.6s16.4,6.2,22.6,0	l22.6-22.6l22.6,22.6c6.2,6.2,16.4,6.2,22.6,0c6.2-6.2,6.2-16.4,0-22.6L134.6,400l22.6-22.6C163.5,371.2,163.5,360.1,157.3,354.8z	 M160,96H64c-8.8,0-16,7.2-16,16s7.2,16,16,16h96c8.8,0,16-7.2,16-16.9S168.8,96,160,96z M480,288H320c-17.6,0-32,14.4-32,32v160	c0,17.6,14.4,32,32,32h160c17.6,0,32-14.4,32-32V320C512,302.4,497.6,288,480,288z M464,431.1c0,9.6-7.2,16.9-16,16.9h-96.1	c-8.7,0-15.9-7.2-15.9-16s7.2-16,15.1-16h96.1C456.8,416,464,423.2,464,431.1z M464,367.1c0,9.6-7.2,16.9-16,16.9h-96.1	c-8.7,0-15.9-7.2-15.9-16s7.2-16,15.1-16h96.1C456.8,352,464,359.2,464,367.1z"/><path class="st1" d="M192,288H32c-17.6,0-32,14.4-32,32v160c0,17.6,14.4,32,32,32h160c17.6,0,32-14.4,32-32V320	C224,302.4,209.6,288,192,288z M157.3,422.6c6.2,6.2,6.2,16.4,0,22.6s-16.4,6.2-22.6,0L112,422.6l-22.6,22.6	c-6.2,6.2-16.4,6.2-22.6,0s-6.2-16.4,0-22.6L89.4,400l-22.6-22.6c-6.2-6.2-6.2-16.4,0-22.6s16.4-6.2,22.6,0l22.6,22.6l22.6-22.6	c6.2-6.2,16.4-6.2,22.6,0c6.2,6.2,6.2,16.4,0,22.6L134.6,400L157.3,422.6z M192,0H32C14.4,0,0,14.4,0,32v160c0,17.6,14.4,32,32,32	h160c17.6,0,32-14.4,32-32V32C224,14.4,209.6,0,192,0z M176,111.1c0,9.7-7.2,16.9-16,16.9H64c-8.8,0-16-7.2-16-16s7.2-16,16-16h96	C168.8,96,176,103.2,176,111.1z M480,0H320c-17.6,0-32,14.4-32,32v160c0,17.6,14.4,32,32,32h160c17.6,0,32-14.4,32-32V32	C512,14.4,497.6,0,480,0z M464,111.1c0,9.7-7.2,16.9-16,16.9h-32v32c0,8.8-7.2,16-16,16s-16-7.2-16-16v-32h-32c-8.8,0-16-7.2-16-16	s7.2-16,15.1-16H384V64c0-8.8,7.2-16,15.1-16S416,55.2,416,64v32h32C456.8,96,464,103.2,464,111.1z"/><script  xmlns=""></script></svg>