<svg class="bi" width="3.5em" height="3.5em" xmlns="http://www.w3.org/2000/svg" xmlns:xlink="http://www.w3.org/1999/xlink" x="0px" y="0px"	 viewBox="0 0 512 512" style="enable-background:new 0 0 512 512;" xml:space="preserve"><style type="text/css">	.st0{fill:#183153;}	.st1{opacity:0.4;fill:#5C99CB;enable-background:new    ;}</style><path class="st0" d="M128,447.1v-224c0-17.7-14.3-31.1-32-31.1H32c-17.7,0-32,14.3-32,31.1v223.1c0,17.7,14.3,31.1,32,31.1h64	C113.7,479.1,128,465.6,128,447.1z"/><path class="st1" d="M512,224.1c0-26.5-21.5-48-48-48H317.5c22.8-37.9,34.5-80.9,34.5-96c0-23.6-18.5-48.1-49.5-48.1	c-63.1,0-26.4,76.2-108.2,141.6l-16.3,13c-11.8,9.5-17.8,23.4-17.9,37.4c0,0,0,0,0,0L160,384c0,15.1,7.1,29.3,19.2,38.4l34.1,25.6	c27.7,20.8,61.4,32,96,32H368c26.5,0,48-21.5,48-48c0-3.6-0.5-7.1-1.2-10.5C434,415.2,448,397.4,448,376c0-9.1-2.7-17.6-7.1-24.9	c22.2-4.1,39.1-23.6,39.1-47c0-12.5-4.9-23.8-12.7-32.3C492.2,270.1,512,249.5,512,224.1z"/><script  xmlns=""></script></svg>